<?xml version="1.0" encoding="iso-8859-1"?>
<!-- Generator: Adobe Illustrator 22.0.1, SVG Export Plug-In . SVG Version: 6.00 Build 0)  -->
<svg version="1.1" id="_x35_0" xmlns="http://www.w3.org/2000/svg" xmlns:xlink="http://www.w3.org/1999/xlink" x="0px" y="0px"
	 viewBox="0 0 512 512" style="enable-background:new 0 0 512 512;" xml:space="preserve">
<linearGradient id="SVGID_1_" gradientUnits="userSpaceOnUse" x1="46.7674" y1="30.5101" x2="466.7368" y2="450.4795">
	<stop  offset="0" style="stop-color:#FEF050"/>
	<stop  offset="0.0348" style="stop-color:#FAE73D"/>
	<stop  offset="0.0935" style="stop-color:#F5DB22"/>
	<stop  offset="0.1536" style="stop-color:#F2D20F"/>
	<stop  offset="0.2152" style="stop-color:#F0CD04"/>
	<stop  offset="0.2809" style="stop-color:#EFCB00"/>
	<stop  offset="0.6685" style="stop-color:#D99544"/>
	<stop  offset="0.8876" style="stop-color:#CD6F3C"/>
	<stop  offset="1" style="stop-color:#C34435"/>
</linearGradient>
<path style="fill:url(#SVGID_1_);" d="M81.531,197.479l6.511,24.612c0.353,1.335,1.723,2.13,3.056,1.778
	c1.335-0.353,2.131-1.722,1.778-3.056l-6.127-23.163h272.62l-35.277,127.814h-18.408v-96.05c0-6.892-5.607-12.5-12.5-12.5
	s-12.5,5.607-12.5,12.5v96.05h-26.651v-96.05c0-6.892-5.607-12.5-12.5-12.5s-12.5,5.607-12.5,12.5v96.05h-26.651v-96.05
	c0-6.892-5.607-12.5-12.5-12.5s-12.5,5.607-12.5,12.5v95.997c-33.88-1.095-63.273-24.338-71.991-57.295l-5.513-20.84
	c-0.353-1.334-1.724-2.132-3.056-1.778c-1.335,0.353-2.131,1.722-1.778,3.056l5.513,20.84c9.512,35.957,42.132,61.069,79.325,61.069
	h20h31.651h20h31.651h20h19.528l-12.548,45.465H154.492c-6.893,0-12.5,5.607-12.5,12.5c0,6.333,4.738,11.568,10.853,12.379
	c-6.565,4.72-10.853,12.418-10.853,21.103c0,14.327,11.655,25.982,25.981,25.982c14.327,0,25.982-11.655,25.982-25.982
	c0-8.61-4.213-16.251-10.683-20.981h105.241c-6.47,4.73-10.683,12.371-10.683,20.981c0,14.327,11.655,25.982,25.982,25.982
	c14.326,0,25.981-11.655,25.981-25.982c0-8.61-4.213-16.251-10.683-20.981h8.183c1.125,0,2.111-0.751,2.41-1.835l66.585-241.246
	h54.568c6.893,0,12.5-5.607,12.5-12.5s-5.607-12.5-12.5-12.5h-71.699c-1.125,0-2.111,0.751-2.41,1.835l-10.479,37.967h-38.125
	c-1.381,0-2.5,1.119-2.5,2.5s1.119,2.5,2.5,2.5h40.028c1.125,0,2.111-0.751,2.41-1.835l10.479-37.967h69.795
	c4.135,0,7.5,3.364,7.5,7.5s-3.365,7.5-7.5,7.5h-56.471c-1.125,0-2.111,0.751-2.41,1.835L325.39,395.929H154.492
	c-4.135,0-7.5-3.364-7.5-7.5s3.365-7.5,7.5-7.5h157.574c1.125,0,2.111-0.751,2.41-1.835l13.928-50.463c0-0.001,0-0.001,0.001-0.002
	l36.657-132.814c0.208-0.752,0.052-1.559-0.42-2.18c-0.473-0.621-1.208-0.985-1.989-0.985H83.5c-4.136,0-7.5-3.364-7.5-7.5
	c0-4.135,3.364-7.5,7.5-7.5h209.131c1.381,0,2.5-1.119,2.5-2.5s-1.119-2.5-2.5-2.5H83.5c-6.893,0-12.5,5.607-12.5,12.5
	C71,191.371,75.573,196.53,81.531,197.479z M197.381,325.464h-15v-96.05c0-4.135,3.364-7.5,7.5-7.5s7.5,3.364,7.5,7.5V325.464z
	 M249.032,325.464h-15v-96.05c0-4.135,3.364-7.5,7.5-7.5s7.5,3.364,7.5,7.5V325.464z M300.683,325.464h-15v-96.05
	c0-4.135,3.364-7.5,7.5-7.5s7.5,3.364,7.5,7.5V325.464z M303.812,400.929c11.569,0,20.981,9.412,20.981,20.981
	s-9.412,20.982-20.981,20.982s-20.982-9.413-20.982-20.982S292.243,400.929,303.812,400.929z M167.973,400.929
	c11.569,0,20.982,9.412,20.982,20.981s-9.413,20.982-20.982,20.982s-20.981-9.413-20.981-20.982S156.404,400.929,167.973,400.929z"
	/>
</svg>
