<?xml version="1.0" encoding="utf-8"?>
<!-- Generator: Adobe Illustrator 24.0.0, SVG Export Plug-In . SVG Version: 6.00 Build 0)  -->
<svg version="1.1" xmlns="http://www.w3.org/2000/svg" xmlns:xlink="http://www.w3.org/1999/xlink" x="0px" y="0px"
	 viewBox="0 0 64 64" enable-background="new 0 0 64 64" xml:space="preserve">
<g id="Captions">
</g>
<g id="Icons">
	<g>
		<g>
			<path fill="#3CC8B4" d="M34,40c0-7.72,6.28-14,14-14c5.096,0,9.551,2.745,12,6.826V16c0-2.209-1.791-4-4-4H8
				c-2.209,0-4,1.791-4,4v32c0,2.209,1.791,4,4,4h32.817C36.738,49.552,34,45.093,34,40z"/>
		</g>
		<g>
			<path fill="#1EAA96" d="M8,48V16c0-2.209,1.791-4,4-4H8c-2.209,0-4,1.791-4,4v32c0,2.209,1.791,4,4,4h4C9.791,52,8,50.209,8,48z"
				/>
		</g>
		<g>
			<rect x="4" y="18" fill="#FAB400" width="56" height="6"/>
		</g>
		<g>
			<rect x="4" y="18" fill="#DC9600" width="4" height="6"/>
		</g>
		<g>
			<path fill="#F0F0F0" d="M48,50L48,50c-5.523,0-10-4.477-10-10v0c0-5.523,4.477-10,10-10h0c5.523,0,10,4.477,10,10v0
				C58,45.523,53.523,50,48,50z"/>
		</g>
		<g>
			<path fill="#505050" d="M48,60L48,60c-1.105,0-2-0.895-2-2v-8h4v8C50,59.105,49.105,60,48,60z"/>
		</g>
		<g>
			<path fill="#3C3C3C" d="M48,58v-8h-2v8c0,1.105,0.895,2,2,2c0.366,0,0.705-0.106,1-0.277C48.405,59.376,48,58.738,48,58z"/>
		</g>
		<g>
			<path fill="#F0F0F0" d="M34,40c0-1.39,0.21-2.731,0.59-4H12v8h22.595C34.215,42.731,34,41.391,34,40z"/>
		</g>
		<g>
			<path fill="#505050" d="M48,28c-6.627,0-12,5.373-12,12c0,6.627,5.373,12,12,12s12-5.373,12-12C60,33.373,54.627,28,48,28z
				 M48,50c-5.514,0-10-4.486-10-10s4.486-10,10-10s10,4.486,10,10S53.514,50,48,50z"/>
		</g>
		<g>
			<path fill="#3C3C3C" d="M38,40c0-6.29,4.842-11.45,11-11.959C48.669,28.014,48.338,28,48,28c-6.627,0-12,5.373-12,12
				c0,6.627,5.373,12,12,12c0.338,0,0.669-0.014,1-0.041C42.842,51.45,38,46.29,38,40z"/>
		</g>
		<g>
			<rect x="46" y="54" fill="#FAB400" width="4" height="2"/>
		</g>
		<g>
			<rect x="46" y="54" fill="#DC9600" width="2" height="2"/>
		</g>
		<g>
			
				<rect x="39.172" y="39.5" transform="matrix(0.7071 -0.7071 0.7071 0.7071 -15.9828 41.4142)" fill="#FA6450" width="5.657" height="1"/>
		</g>
		<g>
			
				<rect x="41.5" y="37.172" transform="matrix(0.7071 -0.7071 0.7071 0.7071 -15.9828 41.4142)" fill="#FA6450" width="1" height="5.657"/>
		</g>
		<g>
			
				<rect x="45.172" y="39.5" transform="matrix(0.7071 -0.7071 0.7071 0.7071 -14.2254 45.6569)" fill="#FA6450" width="5.657" height="1"/>
		</g>
		<g>
			
				<rect x="47.5" y="37.172" transform="matrix(0.7071 -0.7071 0.7071 0.7071 -14.2254 45.6569)" fill="#FA6450" width="1" height="5.657"/>
		</g>
		<g>
			
				<rect x="51.172" y="39.5" transform="matrix(0.7071 -0.7071 0.7071 0.7071 -12.468 49.8995)" fill="#FA6450" width="5.657" height="1"/>
		</g>
		<g>
			
				<rect x="53.5" y="37.172" transform="matrix(0.7071 -0.7071 0.7071 0.7071 -12.468 49.8995)" fill="#FA6450" width="1" height="5.657"/>
		</g>
		<g>
			<rect x="12" y="30" fill="#008C78" width="6" height="2"/>
		</g>
		<g>
			<rect x="20" y="30" fill="#008C78" width="6" height="2"/>
		</g>
		<g>
			<rect x="28" y="30" fill="#008C78" width="6" height="2"/>
		</g>
	</g>
</g>
</svg>
