<?xml version="1.0" encoding="UTF-8"?>
<svg version="1.1" xmlns="http://www.w3.org/2000/svg" width="512" height="512">
<path d="M0 0 C3.650625 0.061875 7.30125 0.12375 11.0625 0.1875 C11.0625 9.4275 11.0625 18.6675 11.0625 28.1875 C8.0925 28.8475 5.1225 29.5075 2.0625 30.1875 C2.0625 31.5075 2.0625 32.8275 2.0625 34.1875 C4.91425778 35.61337889 7.32626174 35.3134857 10.515625 35.31448364 C11.52062546 35.31682363 11.52062546 35.31682363 12.54592896 35.31921089 C14.8014747 35.3232144 17.0569537 35.32003375 19.3125 35.31689453 C20.92529337 35.31824886 22.53808643 35.32002897 24.15087891 35.32220459 C28.53919224 35.32677517 32.92748214 35.3249909 37.3157959 35.3218255 C41.90063542 35.31929997 46.4854729 35.32163998 51.0703125 35.32321167 C58.77083701 35.3250328 66.47135194 35.32262854 74.171875 35.31787109 C83.08438891 35.31242858 91.99687995 35.31419128 100.90939331 35.3196975 C108.55101721 35.32423024 116.19263422 35.32487839 123.83425903 35.32225883 C128.40285619 35.32069694 132.97144259 35.32049988 137.54003906 35.32379532 C141.83438186 35.32667636 146.12869507 35.32469403 150.42303467 35.31890106 C152.00250194 35.31757472 153.58197169 35.31796546 155.16143799 35.32016373 C157.31078436 35.32288014 159.4600348 35.31948804 161.609375 35.31448364 C162.81432617 35.31410662 164.01927734 35.31372959 165.26074219 35.31334114 C168.01672018 35.37981924 168.01672018 35.37981924 170.0625 34.1875 C170.0625 32.8675 170.0625 31.5475 170.0625 30.1875 C167.4225 29.5275 164.7825 28.8675 162.0625 28.1875 C162.0625 18.9475 162.0625 9.7075 162.0625 0.1875 C187.78046749 -0.58713758 187.78046749 -0.58713758 196.09375 7.0546875 C205.15321045 16.59682412 205.21286583 27.06797643 205.19621277 39.57893372 C205.19847833 40.82742605 205.20074388 42.07591839 205.20307809 43.36224383 C205.20917862 46.8160105 205.20906456 50.26975291 205.20788372 53.72352374 C205.20767927 57.45301028 205.21320266 61.18248911 205.21794128 64.91197205 C205.22623873 72.2142899 205.22899571 79.51659967 205.22955366 86.81892184 C205.23002924 92.75593225 205.23208606 98.69294 205.23525429 104.62994957 C205.24405826 121.47122094 205.24867405 138.31248595 205.24792381 155.15375964 C205.24788386 156.06119523 205.2478439 156.96863082 205.24780273 157.90356445 C205.24776185 158.81211096 205.24772097 159.72065746 205.24767885 160.65673568 C205.24727242 175.38029326 205.25684196 190.10382527 205.2709411 204.82737545 C205.28531166 219.95399316 205.29221092 235.08059841 205.29134732 250.20722312 C205.2910156 258.69622769 205.29375205 267.18520545 205.30452538 275.67420387 C205.3136393 282.90182606 205.31579828 290.12940927 205.30901595 297.35703472 C205.3057553 301.04230943 205.3056776 304.72750939 205.3143692 308.41277695 C205.32370777 312.41361273 205.31744635 316.41427612 205.30973816 320.41511536 C205.31488172 321.57184228 205.32002529 322.72856921 205.32532471 323.92034847 C205.27939186 334.72251486 204.34753353 343.8137142 197.0625 352.1875 C191.64027895 357.14283704 186.3395294 360.4434774 178.82963562 360.42800903 C177.7962355 360.43075836 176.76283539 360.43350769 175.69812012 360.43634033 C174.5753064 360.42914978 173.45249268 360.42195923 172.2956543 360.41455078 C171.10498856 360.41484283 169.91432281 360.41513489 168.68757629 360.41543579 C165.43170876 360.41428298 162.17601418 360.40426739 158.92018104 360.39028788 C155.51424397 360.37776703 152.10830333 360.37660895 148.7023468 360.37423706 C142.25677462 360.36802626 135.81127046 360.35162089 129.3657282 360.33153808 C122.02597914 360.3091666 114.6862268 360.29818251 107.34645212 360.28814721 C92.25176354 360.26725429 77.15713858 360.23208612 62.0625 360.1875 C62.47242188 359.18589844 62.88234375 358.18429687 63.3046875 357.15234375 C63.849146 355.80997193 64.39340625 354.4675197 64.9375 353.125 C65.20691406 352.46822266 65.47632813 351.81144531 65.75390625 351.13476562 C67.47639523 346.87055509 68.87232981 342.63041687 70.0625 338.1875 C73.3625 338.1875 76.6625 338.1875 80.0625 338.1875 C80.0625 336.8675 80.0625 335.5475 80.0625 334.1875 C77.0925 334.1875 74.1225 334.1875 71.0625 334.1875 C71.083125 332.91003906 71.10375 331.63257813 71.125 330.31640625 C71.125 325.20243354 70.64532122 320.20105779 70.0625 315.125 C69.96710938 314.25939453 69.87171875 313.39378906 69.7734375 312.50195312 C69.54080736 310.39665031 69.30228031 308.29200044 69.0625 306.1875 C69.77277344 306.34903564 70.48304688 306.51057129 71.21484375 306.67700195 C76.13342161 307.55875318 81.07805632 307.37202599 86.0625 307.375 C87.14273438 307.38724609 88.22296875 307.39949219 89.3359375 307.41210938 C90.90214844 307.41500977 90.90214844 307.41500977 92.5 307.41796875 C93.92119141 307.42413208 93.92119141 307.42413208 95.37109375 307.43041992 C98.30743281 307.16539295 100.43437896 306.5127648 103.0625 305.1875 C105.14607844 301.57261692 105.33351386 298.30621712 105.3125 294.1875 C105.31765625 293.176875 105.3228125 292.16625 105.328125 291.125 C105.04549274 287.99941973 104.63184472 285.91021855 103.0625 283.1875 C99.46564331 281.37727611 96.4981657 280.93139444 92.5 280.921875 C90.93378906 280.91800781 90.93378906 280.91800781 89.3359375 280.9140625 C88.25570312 280.92179687 87.17546875 280.92953125 86.0625 280.9375 C84.98226562 280.92976563 83.90203125 280.92203125 82.7890625 280.9140625 C81.74492187 280.91664063 80.70078125 280.91921875 79.625 280.921875 C78.67753906 280.92413086 77.73007813 280.92638672 76.75390625 280.92871094 C73.83227875 281.20963666 71.6826982 281.87624561 69.0625 283.1875 C67.5817152 286.1490696 67.70935963 289.02256295 67.5 292.3125 C67.37431641 294.23449219 67.37431641 294.23449219 67.24609375 296.1953125 C67.18550781 297.18273437 67.12492187 298.17015625 67.0625 299.1875 C66.4025 299.1875 65.7425 299.1875 65.0625 299.1875 C64.74539062 298.52105469 64.42828125 297.85460937 64.1015625 297.16796875 C56.12286779 281.40894467 44.15923461 271.82816808 28.0625 265.1875 C28.0625 264.8575 28.0625 264.5275 28.0625 264.1875 C29.01511719 264.13851563 29.96773437 264.08953125 30.94921875 264.0390625 C32.83060547 263.92691406 32.83060547 263.92691406 34.75 263.8125 C35.99136719 263.74289062 37.23273438 263.67328125 38.51171875 263.6015625 C41.84508343 263.21285331 44.17612884 262.88291801 47.0625 261.1875 C49.14607844 257.57261692 49.33351386 254.30621712 49.3125 250.1875 C49.31765625 249.176875 49.3228125 248.16625 49.328125 247.125 C49.04549274 243.99941973 48.63184472 241.91021855 47.0625 239.1875 C43.46564331 237.37727611 40.4981657 236.93139444 36.5 236.921875 C35.45585937 236.91929687 34.41171875 236.91671875 33.3359375 236.9140625 C32.25570312 236.92179688 31.17546875 236.92953125 30.0625 236.9375 C28.44214844 236.92589844 28.44214844 236.92589844 26.7890625 236.9140625 C25.74492187 236.91664063 24.70078125 236.91921875 23.625 236.921875 C22.67753906 236.92413086 21.73007813 236.92638672 20.75390625 236.92871094 C17.83227875 237.20963666 15.6826982 237.87624561 13.0625 239.1875 C11.86220092 241.58809817 11.94790257 243.08110649 11.96484375 245.7578125 C11.96806641 246.65371094 11.97128906 247.54960937 11.97460938 248.47265625 C11.98298828 249.40980469 11.99136719 250.34695313 12 251.3125 C12.00451172 252.25738281 12.00902344 253.20226562 12.01367188 254.17578125 C12.02547643 256.51308387 12.04194241 258.85026061 12.0625 261.1875 C10.99773437 261.21328125 9.93296875 261.2390625 8.8359375 261.265625 C-4.58409426 261.73058323 -16.13098809 264.02502839 -27.828125 271.015625 C-29.9375 272.1875 -29.9375 272.1875 -31.9375 272.1875 C-32.05163399 240.2544398 -32.14008492 208.32143778 -32.19282665 176.38822118 C-32.19907996 172.61574738 -32.2055516 168.84327398 -32.2121582 165.07080078 C-32.21346976 164.31978896 -32.21478131 163.56877714 -32.2161326 162.79500739 C-32.23787206 150.64463033 -32.27728547 138.4943719 -32.32326398 126.34406514 C-32.37006938 113.87094738 -32.39780401 101.39789163 -32.40794247 88.92468965 C-32.41479321 81.23185142 -32.43640763 73.53934854 -32.47708233 65.84661357 C-32.50670856 59.94162441 -32.50976383 54.03680612 -32.50303841 48.13174057 C-32.50441208 45.71385893 -32.51433283 43.29596441 -32.53352737 40.87815857 C-32.5584937 37.57062324 -32.55239089 34.2645096 -32.53877258 30.9569397 C-32.55333679 30.00554914 -32.567901 29.05415859 -32.58290654 28.07393801 C-32.49707999 20.33442331 -30.26317989 13.7895491 -24.94766122 8.0323025 C-17.16496778 0.67425067 -10.36640061 -0.24900516 0 0 Z M-1.34165955 61.27174377 C-3.64000132 65.47103845 -3.50486675 69.12180764 -3.47094727 73.83959961 C-3.47956284 74.80604904 -3.48817841 75.77249847 -3.49705505 76.76823425 C-3.51973494 79.95904415 -3.51297201 83.14897719 -3.50390625 86.33984375 C-3.50914109 88.56035117 -3.51541706 90.78085635 -3.52268982 93.00135803 C-3.53309793 97.65425076 -3.52852671 102.30683773 -3.51391602 106.9597168 C-3.49673203 112.91971177 -3.52021737 118.87874237 -3.55540562 124.83862972 C-3.57737634 129.42406085 -3.57593877 134.00926115 -3.5676403 138.59472847 C-3.56682053 140.79194763 -3.57368881 142.9891837 -3.58841133 145.18635368 C-3.60584957 148.26017222 -3.59131945 151.33225679 -3.56860352 154.40600586 C-3.58029572 155.31165283 -3.59198792 156.2172998 -3.60403442 157.15039062 C-3.54180334 161.29342534 -3.31442576 164.29972454 -0.77305603 167.67384338 C3.93879964 171.85079741 8.49958441 172.43706299 14.6592865 172.44819641 C15.9700264 172.45528122 17.2807663 172.46236603 18.63122559 172.46966553 C20.07177769 172.46737202 21.51232947 172.46486236 22.95288086 172.4621582 C24.47933704 172.46650834 26.00579105 172.4716925 27.53224182 172.47764587 C31.66861294 172.49101417 35.80489257 172.491617 39.94128108 172.48908257 C43.39802138 172.48801146 46.85474328 172.49289979 50.31147963 172.497688 C58.46800243 172.50877553 66.62447917 172.50922473 74.78100586 172.50317383 C83.18800809 172.49713291 91.594843 172.50944975 100.00181669 172.5307439 C107.22747581 172.5483711 114.45308172 172.55435952 121.67876154 172.55110615 C125.99095973 172.54929505 130.30303854 172.5519123 134.61521721 172.56582069 C138.67086006 172.57841277 142.72624239 172.57644199 146.78188133 172.56340981 C148.26733743 172.56104753 149.75281194 172.56376622 151.23824692 172.57203293 C162.74574238 172.71701802 162.74574238 172.71701802 172.875 167.875 C176.45162387 162.79242924 176.3549846 157.13243824 176.3371582 151.18798828 C176.34226913 150.30263397 176.34738007 149.41727966 176.35264587 148.50509644 C176.36650313 145.58926563 176.36558791 142.67367225 176.36328125 139.7578125 C176.36717049 137.72288933 176.37150563 135.68796697 176.37626648 133.65304565 C176.38372052 129.39122891 176.38344345 125.12949502 176.37817383 120.86767578 C176.37238234 115.41818819 176.38930655 109.96904082 176.4125185 104.51960945 C176.42728263 100.31759676 176.42812385 96.11566548 176.42500877 91.91363144 C176.4255207 89.90507204 176.43073426 87.89650793 176.44082069 85.88797379 C176.45321878 83.07369421 176.44637304 80.26007062 176.43481445 77.44580078 C176.44245819 76.62372131 176.45010193 75.80164185 176.45797729 74.95465088 C176.40783183 69.40394757 175.39022808 65.24918518 173.0625 60.1875 C168.27144578 56.37922613 163.66965086 56.06265137 157.70622253 56.04705811 C156.39823196 56.04134796 155.09024139 56.03563782 153.74261475 56.02975464 C152.2947999 56.02850936 150.84698495 56.02738424 149.39916992 56.02636719 C147.87301005 56.02173738 146.34685134 56.0167125 144.82069397 56.01132202 C140.67596535 55.99821205 136.53125291 55.99175586 132.3865068 55.98731136 C129.79605819 55.9843785 127.205614 55.98027329 124.61516762 55.97580719 C116.50734929 55.96213623 108.39954104 55.95246749 100.29171199 55.9486053 C90.93770464 55.94412477 81.58384343 55.92657545 72.22988051 55.8976047 C64.99577701 55.87597844 57.76171461 55.86590052 50.52757913 55.86456418 C46.20863335 55.86351687 41.88982502 55.85762478 37.57091331 55.83974457 C33.50710437 55.82324743 29.44353596 55.82111629 25.37970543 55.82988358 C23.89102025 55.83065306 22.40232206 55.82632288 20.91366959 55.81642532 C8.8370341 55.56221989 8.8370341 55.56221989 -1.34165955 61.27174377 Z M9.0625 201.1875 C8.22916667 204.1875 8.22916667 204.1875 9.0625 207.1875 C13.06037139 210.37998407 16.35730199 210.57269985 21.375 210.5859375 C22.06634033 210.58880768 22.75768066 210.59167786 23.4699707 210.59463501 C24.92562687 210.59666839 26.38131081 210.59118938 27.83691406 210.57861328 C30.05596425 210.56254732 32.27319347 210.57848461 34.4921875 210.59765625 C35.91146232 210.59567369 37.33073602 210.59182974 38.75 210.5859375 C40.67392578 210.58086182 40.67392578 210.58086182 42.63671875 210.57568359 C46.28357234 210.16244976 48.20766301 209.46721856 51.0625 207.1875 C51.89583333 204.1875 51.89583333 204.1875 51.0625 201.1875 C47.06462861 197.99501593 43.76769801 197.80230015 38.75 197.7890625 C38.05865967 197.78619232 37.36731934 197.78332214 36.6550293 197.78036499 C35.19937313 197.77833161 33.74368919 197.78381062 32.28808594 197.79638672 C30.06903575 197.81245268 27.85180653 197.79651539 25.6328125 197.77734375 C24.21353768 197.77932631 22.79426398 197.78317026 21.375 197.7890625 C20.09238281 197.79244629 18.80976563 197.79583008 17.48828125 197.79931641 C13.84142766 198.21255024 11.91733699 198.90778144 9.0625 201.1875 Z M65.0625 201.1875 C64.22916667 204.1875 64.22916667 204.1875 65.0625 207.1875 C69.06037139 210.37998407 72.35730199 210.57269985 77.375 210.5859375 C78.06634033 210.58880768 78.75768066 210.59167786 79.4699707 210.59463501 C80.92562687 210.59666839 82.38131081 210.59118938 83.83691406 210.57861328 C86.05596425 210.56254732 88.27319347 210.57848461 90.4921875 210.59765625 C91.91146232 210.59567369 93.33073602 210.59182974 94.75 210.5859375 C96.67392578 210.58086182 96.67392578 210.58086182 98.63671875 210.57568359 C102.28357234 210.16244976 104.20766301 209.46721856 107.0625 207.1875 C107.89583333 204.1875 107.89583333 204.1875 107.0625 201.1875 C103.06462861 197.99501593 99.76769801 197.80230015 94.75 197.7890625 C94.05865967 197.78619232 93.36731934 197.78332214 92.6550293 197.78036499 C91.19937313 197.77833161 89.74368919 197.78381062 88.28808594 197.79638672 C86.06903575 197.81245268 83.85180653 197.79651539 81.6328125 197.77734375 C80.21353768 197.77932631 78.79426398 197.78317026 77.375 197.7890625 C76.09238281 197.79244629 74.80976563 197.79583008 73.48828125 197.79931641 C69.84142766 198.21255024 67.91733699 198.90778144 65.0625 201.1875 Z M121.0625 201.1875 C120.22916667 204.1875 120.22916667 204.1875 121.0625 207.1875 C125.06037139 210.37998407 128.35730199 210.57269985 133.375 210.5859375 C134.06634033 210.58880768 134.75768066 210.59167786 135.4699707 210.59463501 C136.92562687 210.59666839 138.38131081 210.59118938 139.83691406 210.57861328 C142.05596425 210.56254732 144.27319347 210.57848461 146.4921875 210.59765625 C147.91146232 210.59567369 149.33073602 210.59182974 150.75 210.5859375 C152.67392578 210.58086182 152.67392578 210.58086182 154.63671875 210.57568359 C158.28357234 210.16244976 160.20766301 209.46721856 163.0625 207.1875 C163.89583333 204.1875 163.89583333 204.1875 163.0625 201.1875 C159.06462861 197.99501593 155.76769801 197.80230015 150.75 197.7890625 C150.05865967 197.78619232 149.36731934 197.78332214 148.6550293 197.78036499 C147.19937313 197.77833161 145.74368919 197.78381062 144.28808594 197.79638672 C142.06903575 197.81245268 139.85180653 197.79651539 137.6328125 197.77734375 C136.21353768 197.77932631 134.79426398 197.78317026 133.375 197.7890625 C132.09238281 197.79244629 130.80976563 197.79583008 129.48828125 197.79931641 C125.84142766 198.21255024 123.91733699 198.90778144 121.0625 201.1875 Z M68.0625 239.1875 C66.3717078 242.56908441 66.79360941 246.34697812 66.75 250.0625 C66.72099609 250.87847656 66.69199219 251.69445312 66.66210938 252.53515625 C66.58774048 257.45461531 66.58774048 257.45461531 68.89453125 261.6953125 C74.02656714 265.2276327 79.88824884 264.40924395 85.875 264.4375 C87.49631836 264.4684375 87.49631836 264.4684375 89.15039062 264.5 C97.08290121 264.61924837 97.08290121 264.61924837 104.0625 261.1875 C107.09118426 256.01167935 106.5651691 249.99175726 106.0625 244.1875 C105.10568655 240.59470543 105.10568655 240.59470543 103.0625 238.1875 C97.56348431 235.44835202 92.1377424 235.85698699 86.125 235.875 C85.05314453 235.85888672 83.98128906 235.84277344 82.87695312 235.82617188 C77.24349202 235.82268366 72.85645612 235.85363204 68.0625 239.1875 Z M124.0625 239.1875 C122.3717078 242.56908441 122.79360941 246.34697812 122.75 250.0625 C122.72099609 250.87847656 122.69199219 251.69445312 122.66210938 252.53515625 C122.58774048 257.45461531 122.58774048 257.45461531 124.89453125 261.6953125 C130.02656714 265.2276327 135.88824884 264.40924395 141.875 264.4375 C143.49631836 264.4684375 143.49631836 264.4684375 145.15039062 264.5 C153.08290121 264.61924837 153.08290121 264.61924837 160.0625 261.1875 C163.09118426 256.01167935 162.5651691 249.99175726 162.0625 244.1875 C161.10568655 240.59470543 161.10568655 240.59470543 159.0625 238.1875 C153.56348431 235.44835202 148.1377424 235.85698699 142.125 235.875 C141.05314453 235.85888672 139.98128906 235.84277344 138.87695312 235.82617188 C133.24349202 235.82268366 128.85645612 235.85363204 124.0625 239.1875 Z M124.0625 283.1875 C122.3717078 286.56908441 122.79360941 290.34697812 122.75 294.0625 C122.72099609 294.87847656 122.69199219 295.69445312 122.66210938 296.53515625 C122.58774048 301.45461531 122.58774048 301.45461531 124.89453125 305.6953125 C130.02656714 309.2276327 135.88824884 308.40924395 141.875 308.4375 C143.49631836 308.4684375 143.49631836 308.4684375 145.15039062 308.5 C153.08290121 308.61924837 153.08290121 308.61924837 160.0625 305.1875 C163.09118426 300.01167935 162.5651691 293.99175726 162.0625 288.1875 C161.10568655 284.59470543 161.10568655 284.59470543 159.0625 282.1875 C153.56348431 279.44835202 148.1377424 279.85698699 142.125 279.875 C141.05314453 279.85888672 139.98128906 279.84277344 138.87695312 279.82617188 C133.24349202 279.82268366 128.85645612 279.85363204 124.0625 283.1875 Z M91.0625 334.1875 C91.0625 335.5075 91.0625 336.8275 91.0625 338.1875 C93.3725 338.1875 95.6825 338.1875 98.0625 338.1875 C98.0625 336.8675 98.0625 335.5475 98.0625 334.1875 C95.7525 334.1875 93.4425 334.1875 91.0625 334.1875 Z M108.0625 334.1875 C108.0625 335.5075 108.0625 336.8275 108.0625 338.1875 C110.7025 338.1875 113.3425 338.1875 116.0625 338.1875 C116.0625 336.8675 116.0625 335.5475 116.0625 334.1875 C113.4225 334.1875 110.7825 334.1875 108.0625 334.1875 Z M126.0625 334.1875 C126.0625 335.5075 126.0625 336.8275 126.0625 338.1875 C128.3725 338.1875 130.6825 338.1875 133.0625 338.1875 C133.0625 336.8675 133.0625 335.5475 133.0625 334.1875 C130.7525 334.1875 128.4425 334.1875 126.0625 334.1875 Z M144.0625 334.1875 C144.0625 335.5075 144.0625 336.8275 144.0625 338.1875 C146.3725 338.1875 148.6825 338.1875 151.0625 338.1875 C151.0625 336.8675 151.0625 335.5475 151.0625 334.1875 C148.7525 334.1875 146.4425 334.1875 144.0625 334.1875 Z M161.0625 334.1875 C161.0625 335.5075 161.0625 336.8275 161.0625 338.1875 C163.7025 338.1875 166.3425 338.1875 169.0625 338.1875 C169.0625 336.8675 169.0625 335.5475 169.0625 334.1875 C166.4225 334.1875 163.7825 334.1875 161.0625 334.1875 Z M179.0625 334.1875 C179.0625 335.5075 179.0625 336.8275 179.0625 338.1875 C181.3725 338.1875 183.6825 338.1875 186.0625 338.1875 C186.0625 336.8675 186.0625 335.5475 186.0625 334.1875 C183.7525 334.1875 181.4425 334.1875 179.0625 334.1875 Z " fill="#000000" transform="translate(147.9375,95.8125)"/>
<path d="M0 0 C0.66097878 -0.00297112 1.32195755 -0.00594224 2.00296599 -0.0090034 C4.23396926 -0.01772561 6.4649191 -0.01920159 8.69593811 -0.02069092 C10.28888057 -0.02531656 11.88182192 -0.03034087 13.47476196 -0.03573608 C17.81354121 -0.04888552 22.15230496 -0.05530984 26.49110103 -0.05974674 C29.19858368 -0.06267304 31.90606205 -0.06677696 34.61354256 -0.07125092 C43.07536041 -0.08493179 51.53716853 -0.09459587 59.99899668 -0.09845281 C69.78436519 -0.10293688 79.56959424 -0.12049845 89.35492033 -0.1494534 C96.90735378 -0.17102961 104.45974789 -0.18115489 112.01221186 -0.18249393 C116.52833663 -0.18354477 121.04433043 -0.18951161 125.5604229 -0.20731354 C129.80638578 -0.22372452 134.05211824 -0.22598396 138.29810143 -0.21717453 C139.85983647 -0.21640042 141.42158355 -0.22079567 142.98328781 -0.23063278 C145.10884792 -0.24324046 147.23357801 -0.23753785 149.35913086 -0.22705078 C150.55063216 -0.22851734 151.74213346 -0.2299839 152.96974087 -0.2314949 C153.88493527 -0.10875576 154.80012968 0.01398338 155.74305725 0.14044189 C158.37654256 4.09066986 158.02333842 7.4784025 158.00184631 12.06231689 C158.00710327 13.43099915 158.00710327 13.43099915 158.01246643 14.82733154 C158.02128081 17.84844534 158.01543559 20.86932564 158.00868225 23.89044189 C158.01002898 25.986471 158.01196958 28.0824998 158.01448059 30.17852783 C158.01743146 34.57341483 158.01313537 38.96822058 158.00379944 43.36309814 C157.99240497 49.00254788 157.99896463 54.64180725 158.01094437 60.28125 C158.01816395 64.61002034 158.01587458 68.9387454 158.01068878 73.26751709 C158.00935256 75.34718854 158.01099905 77.42686408 158.01564789 79.50653076 C158.02071468 82.41065396 158.01300064 85.31446687 158.00184631 88.21856689 C158.00589478 89.08203735 158.00994324 89.94550781 158.01411438 90.83514404 C157.971588 96.79764577 157.971588 96.79764577 155.74305725 100.14044189 C152.96974087 100.51237869 152.96974087 100.51237869 149.35913086 100.50793457 C148.69659209 100.51120341 148.03405333 100.51447225 147.35143763 100.51784015 C145.12098943 100.52515035 142.89119042 100.51093645 140.66078186 100.49688721 C139.06606942 100.49767766 137.47135716 100.49977362 135.87664795 100.50308228 C131.53790325 100.50822811 127.19939466 100.49465797 122.86068797 100.47755527 C118.32877207 100.46255333 113.79685967 100.46369413 109.2649231 100.46289062 C101.65432182 100.45919494 94.04381057 100.4442117 86.4332428 100.42169189 C76.65151559 100.39280737 66.86986089 100.38246836 57.08809566 100.3780098 C48.69451545 100.37403534 40.30095112 100.36153283 31.90738225 100.34766293 C29.20138729 100.34355701 26.49539291 100.34063492 23.78939629 100.33786774 C19.54511279 100.33298714 15.30087364 100.32280482 11.05661201 100.30842972 C9.4944664 100.3038935 7.93231481 100.30106495 6.37016296 100.30002213 C4.24673023 100.29828597 2.12340984 100.29042859 0 100.28088379 C-1.19112428 100.27790913 -2.38224855 100.27493446 -3.60946751 100.27186966 C-6.25694275 100.14044189 -6.25694275 100.14044189 -7.25694275 99.14044189 C-7.35758474 96.10178429 -7.39308865 93.0858146 -7.38633728 90.04669189 C-7.3880896 89.09230225 -7.38984192 88.1379126 -7.39164734 87.15460205 C-7.39606761 83.98319712 -7.39312725 80.81184744 -7.38975525 77.64044189 C-7.39042824 75.44708241 -7.39139822 73.253723 -7.39265442 71.06036377 C-7.39413163 66.45684094 -7.39197609 61.85333748 -7.38731384 57.24981689 C-7.38161655 51.33439594 -7.38489543 45.41902036 -7.39088631 39.50360107 C-7.39449129 34.97246964 -7.39335362 30.44134904 -7.39075851 25.91021729 C-7.39008907 23.72841385 -7.39091827 21.54660944 -7.39323807 19.36480713 C-7.39576357 16.321242 -7.39192545 13.27775144 -7.38633728 10.23419189 C-7.38836151 9.32298584 -7.39038574 8.41177979 -7.39247131 7.47296143 C-7.36744052 0.15395697 -7.22027342 0.0180316 0 0 Z " fill="#000000" transform="translate(159.25694274902344,159.85955810546875)"/>
<path d="M0 0 C3.90855542 0.6514259 4.92915256 1.32662361 7.875 3.75 C9.83085167 5.39690856 9.83085167 5.39690856 11.75 6.625 C14.43646632 6.41872806 14.43646632 6.41872806 16.75 4.625 C21.67760283 1.33993145 25.13942628 -0.104362 31.125 0.078125 C35.17734831 0.92236423 38.13883859 3.06297912 41.42578125 5.5078125 C43.74183917 6.92982093 43.74183917 6.92982093 46.375 5.9375 C48.89502331 4.62931109 48.89502331 4.62931109 51.4375 2.5 C56.00959866 -0.08798037 59.6090187 -0.40614238 64.75 0.625 C67.72485092 2.07653584 70.4510211 3.67590029 73.20703125 5.5078125 C75.71623872 6.92419301 75.71623872 6.92419301 78.375 5.9375 C80.93252704 4.56704118 80.93252704 4.56704118 83.9375 2.5 C88.42703832 -0.06545047 92.71059463 -0.42331612 97.75 0.625 C100.52207066 2.07268109 103.00195519 3.65982058 105.5234375 5.5078125 C107.68622876 6.91954889 107.68622876 6.91954889 109.86328125 5.9375 C111.45646402 4.82919894 113.0140283 3.66995639 114.5625 2.5 C118.35352384 0.26998598 120.41920978 0.06360127 124.75 0.625 C127.19159322 1.91004907 128.41338062 2.67729191 129.34446716 5.29864502 C129.88911587 8.42304364 129.86914979 11.42451565 129.86352539 14.59667969 C129.86367142 15.2897673 129.86381744 15.98285492 129.8639679 16.69694519 C129.86327307 18.98028733 129.85550085 21.26354717 129.84765625 23.546875 C129.84579054 25.13299515 129.84436736 26.71911588 129.84336853 28.30523682 C129.83955538 32.47436115 129.82973537 36.6434505 129.81866455 40.81256104 C129.80842457 45.06904629 129.80386537 49.32553722 129.79882812 53.58203125 C129.78811202 61.92970353 129.77105004 70.27734741 129.75 78.625 C126.78 78.625 123.81 78.625 120.75 78.625 C120.75 79.945 120.75 81.265 120.75 82.625 C123.72 82.625 126.69 82.625 129.75 82.625 C129.75 85.925 129.75 89.225 129.75 92.625 C84.54 92.625 39.33 92.625 -7.25 92.625 C-7.25 89.325 -7.25 86.025 -7.25 82.625 C-4.61 82.625 -1.97 82.625 0.75 82.625 C0.75 81.305 0.75 79.985 0.75 78.625 C-1.89 78.625 -4.53 78.625 -7.25 78.625 C-7.34266788 69.04574639 -7.41374845 59.466647 -7.45724869 49.887043 C-7.47812638 45.43885723 -7.50644702 40.99097806 -7.55175781 36.54296875 C-7.59520957 32.25060766 -7.61913574 27.95854152 -7.62950897 23.66597748 C-7.6369016 22.02807725 -7.65133775 20.39019323 -7.67292023 18.75241852 C-7.70194647 16.45861391 -7.70595651 14.16602894 -7.70410156 11.87207031 C-7.71298401 10.56635071 -7.72186646 9.2606311 -7.73101807 7.91534424 C-7.25 4.625 -7.25 4.625 -5.42474365 2.21112061 C-3.25 0.625 -3.25 0.625 0 0 Z M13.75 38.625 C14.09444881 41.09766765 14.09444881 41.09766765 14.75 43.625 C18.10789905 45.30394952 21.89684746 44.78816336 25.58984375 44.79296875 C26.46774063 44.79629715 27.34563751 44.79962555 28.25013733 44.80305481 C30.10872879 44.80812218 31.96732937 44.81046319 33.82592773 44.81030273 C36.67251547 44.81248849 39.51871529 44.83064408 42.36523438 44.84960938 C44.1692695 44.85254345 45.97330648 44.85452815 47.77734375 44.85546875 C48.63053696 44.86265427 49.48373016 44.86983978 50.36277771 44.87724304 C55.35296677 44.86825222 55.35296677 44.86825222 59.75 42.625 C59.40555119 40.15233235 59.40555119 40.15233235 58.75 37.625 C55.39210095 35.94605048 51.60315254 36.46183664 47.91015625 36.45703125 C47.03225937 36.45370285 46.15436249 36.45037445 45.24986267 36.44694519 C43.39127121 36.44187782 41.53267063 36.43953681 39.67407227 36.43969727 C36.82748453 36.43751151 33.98128471 36.41935592 31.13476562 36.40039062 C29.3307305 36.39745655 27.52669352 36.39547185 25.72265625 36.39453125 C24.86946304 36.38734573 24.01626984 36.38016022 23.13722229 36.37275696 C18.14703323 36.38174778 18.14703323 36.38174778 13.75 38.625 Z M13.75 54.625 C14.09444881 57.09766765 14.09444881 57.09766765 14.75 59.625 C17.69595052 61.09797526 20.67642605 60.77235826 23.90600586 60.77026367 C24.6427504 60.77362228 25.37949493 60.7769809 26.13856506 60.78044128 C28.58067498 60.78996156 31.02271642 60.79189491 33.46484375 60.79296875 C35.15873747 60.79618049 36.85263092 60.79954449 38.54652405 60.80305481 C42.09995161 60.80904871 45.65335484 60.81089443 49.20678711 60.81030273 C53.76449614 60.81020107 58.32204952 60.82385602 62.87972164 60.84107494 C66.37895935 60.85218243 69.87815926 60.85422233 73.3774128 60.85369301 C75.05796406 60.85487491 76.73851625 60.85930842 78.41905022 60.86702538 C80.76767825 60.87680049 83.11596634 60.87395721 85.46459961 60.86791992 C86.50969193 60.87634918 86.50969193 60.87634918 87.57589722 60.88494873 C91.20344801 60.86120049 92.63878405 60.69914396 95.75 58.625 C95.40555119 56.15233235 95.40555119 56.15233235 94.75 53.625 C91.80404948 52.15202474 88.82357395 52.47764174 85.59399414 52.47973633 C84.8572496 52.47637772 84.12050507 52.4730191 83.36143494 52.46955872 C80.91932502 52.46003844 78.47728358 52.45810509 76.03515625 52.45703125 C74.34126253 52.45381951 72.64736908 52.45045551 70.95347595 52.44694519 C67.40004839 52.44095129 63.84664516 52.43910557 60.29321289 52.43969727 C55.73550386 52.43979893 51.17795048 52.42614398 46.62027836 52.40892506 C43.12104065 52.39781757 39.62184074 52.39577767 36.1225872 52.39630699 C34.44203594 52.39512509 32.76148375 52.39069158 31.08094978 52.38297462 C28.73232175 52.37319951 26.38403366 52.37604279 24.03540039 52.38208008 C23.33867218 52.37646057 22.64194397 52.37084106 21.92410278 52.36505127 C18.29655199 52.38879951 16.86121595 52.55085604 13.75 54.625 Z M11.75 78.625 C11.75 79.945 11.75 81.265 11.75 82.625 C14.06 82.625 16.37 82.625 18.75 82.625 C18.75 81.305 18.75 79.985 18.75 78.625 C16.44 78.625 14.13 78.625 11.75 78.625 Z M29.75 78.625 C29.75 79.945 29.75 81.265 29.75 82.625 C32.06 82.625 34.37 82.625 36.75 82.625 C36.75 81.305 36.75 79.985 36.75 78.625 C34.44 78.625 32.13 78.625 29.75 78.625 Z M47.75 78.625 C47.75 79.945 47.75 81.265 47.75 82.625 C50.39 82.625 53.03 82.625 55.75 82.625 C55.75 81.305 55.75 79.985 55.75 78.625 C53.11 78.625 50.47 78.625 47.75 78.625 Z M65.75 78.625 C65.75 79.945 65.75 81.265 65.75 82.625 C68.39 82.625 71.03 82.625 73.75 82.625 C73.75 81.305 73.75 79.985 73.75 78.625 C71.11 78.625 68.47 78.625 65.75 78.625 Z M84.75 78.625 C84.75 79.945 84.75 81.265 84.75 82.625 C87.06 82.625 89.37 82.625 91.75 82.625 C91.75 81.305 91.75 79.985 91.75 78.625 C89.44 78.625 87.13 78.625 84.75 78.625 Z M102.75 78.625 C102.75 79.945 102.75 81.265 102.75 82.625 C105.39 82.625 108.03 82.625 110.75 82.625 C110.75 81.305 110.75 79.985 110.75 78.625 C108.11 78.625 105.47 78.625 102.75 78.625 Z " fill="#000000" transform="translate(173.25,31.375)"/>
<path d="M0 0 C13.17460694 13.17460694 19.62338309 28.3420817 19.8125 46.8125 C18.57223487 63.64466964 11.90266181 77.78742915 -0.3203125 89.453125 C-15.25378738 101.74170651 -31.26303265 104.35201922 -50.1875 102.8125 C-65.90203943 100.16185479 -79.07427448 90.68904176 -88.2890625 77.89453125 C-97.49443607 63.06800404 -99.42815467 46.99126179 -96.52734375 29.9296875 C-92.29147174 14.70988763 -82.71322848 2.19513525 -69.3125 -6.125 C-45.58687131 -18.7141091 -21.55804099 -14.79473401 0 0 Z M-29.1484375 32.1875 C-30.03144531 33.08984375 -30.91445312 33.9921875 -31.82421875 34.921875 C-32.72785156 35.87578125 -33.63148438 36.8296875 -34.5625 37.8125 C-35.49729245 38.77740526 -36.43347731 39.74096363 -37.37109375 40.703125 C-39.65728134 43.06001942 -41.92832327 45.42974979 -44.1875 47.8125 C-47.64674202 46.50732479 -49.74904399 45.53864721 -52.125 42.6875 C-54.40355606 40.29149259 -54.96868369 39.85540516 -58.375 39.1875 C-61.24624715 39.5974536 -61.24624715 39.5974536 -63.1875 41.5 C-64.40968986 43.75638379 -64.40968986 43.75638379 -63.8125 46.125 C-61.48555897 49.97340247 -58.47614839 52.77682456 -55.1875 55.8125 C-54.59195313 56.4003125 -53.99640625 56.988125 -53.3828125 57.59375 C-52.80273438 58.1403125 -52.22265625 58.686875 -51.625 59.25 C-50.84962891 59.99056641 -50.84962891 59.99056641 -50.05859375 60.74609375 C-47.22083329 62.36343948 -45.42411756 62.21662482 -42.1875 61.8125 C-39.8277298 60.04990227 -37.94975515 58.41760737 -35.9140625 56.3359375 C-35.34545502 55.77307037 -34.77684753 55.21020325 -34.19100952 54.63027954 C-32.99543994 53.43878443 -31.80738026 52.23971214 -30.62646484 51.03369141 C-28.81819863 49.19329987 -26.98016614 47.38710423 -25.13671875 45.58203125 C-23.97723804 44.41858554 -22.81962002 43.25327989 -21.6640625 42.0859375 C-21.11416656 41.54818695 -20.56427063 41.0104364 -19.99771118 40.45639038 C-17.45681387 37.8196063 -16.24483594 36.2133723 -15.72021484 32.54541016 C-15.94019913 29.67458959 -15.94019913 29.67458959 -18.1875 27.8125 C-23.52206065 27.05742602 -25.49681969 28.39361136 -29.1484375 32.1875 Z " fill="#000000" transform="translate(193.1875,377.1875)"/>
<path d="M0 0 C14.88888889 0 14.88888889 0 21.3125 6.25 C25.13254142 12.47525269 25.29284038 19.23313655 25.26069641 26.32945251 C25.26452196 27.23648645 25.26834751 28.14352038 25.27228898 29.07804018 C25.28256112 32.10018241 25.27863786 35.1221326 25.2746582 38.14428711 C25.27900785 40.31803055 25.28419184 42.49177245 25.29014587 44.66551208 C25.30351916 50.55803403 25.30411644 56.45049176 25.30158257 62.34302592 C25.30051184 67.26601951 25.3053988 72.18900017 25.310188 77.11199099 C25.32127717 88.72725842 25.32172374 100.34249351 25.31567383 111.95776367 C25.3096322 123.9331743 25.32195123 135.90841636 25.3432439 147.88380998 C25.3608656 158.17363099 25.36686039 168.46341464 25.36360615 178.75325018 C25.36179425 184.89535152 25.36442049 191.03736906 25.37832069 197.17945671 C25.39090376 202.95545223 25.38895024 208.73126473 25.37590981 214.50725746 C25.37354563 216.62399737 25.37627299 218.74075017 25.38453293 220.85747528 C25.39501527 223.75304949 25.38688764 226.64801128 25.3742218 229.54356384 C25.38159609 230.37568183 25.38897037 231.20779982 25.39656812 232.06513351 C25.33346225 238.95055971 23.88234405 245.01421289 20.1875 250.875 C13.65561917 257.22025566 9.92227226 256 0 256 C0 171.52 0 87.04 0 0 Z " fill="#000000" transform="translate(392,148)"/>
<path d="M0 0 C2.97 0 5.94 0 9 0 C9 84.48 9 168.96 9 256 C6.03 256 3.06 256 0 256 C0 171.52 0 87.04 0 0 Z " fill="#000000" transform="translate(376,148)"/>
<path d="M0 0 C2.97 0 5.94 0 9 0 C9 84.48 9 168.96 9 256 C6.03 256 3.06 256 0 256 C0 171.52 0 87.04 0 0 Z " fill="#000000" transform="translate(360,148)"/>
<path d="M0 0 C8.25 0 16.5 0 25 0 C25 3.96 25 7.92 25 12 C16.75 12 8.5 12 0 12 C0 8.04 0 4.08 0 0 Z " fill="#000000" transform="translate(278,384)"/>
<path d="M0 0 C8.25 0 16.5 0 25 0 C25 3.96 25 7.92 25 12 C16.75 12 8.5 12 0 12 C0 8.04 0 4.08 0 0 Z " fill="#000000" transform="translate(222,384)"/>
<path d="M0 0 C8.25 0 16.5 0 25 0 C25 3.96 25 7.92 25 12 C16.75 12 8.5 12 0 12 C0 8.04 0 4.08 0 0 Z " fill="#000000" transform="translate(278,340)"/>
<path d="M0 0 C8.25 0 16.5 0 25 0 C25 3.96 25 7.92 25 12 C16.75 12 8.5 12 0 12 C0 8.04 0 4.08 0 0 Z " fill="#000000" transform="translate(222,340)"/>
<path d="M0 0 C8.25 0 16.5 0 25 0 C25 3.96 25 7.92 25 12 C16.75 12 8.5 12 0 12 C0 8.04 0 4.08 0 0 Z " fill="#000000" transform="translate(166,340)"/>
<path d="M0 0 C7.26 0 14.52 0 22 0 C19.00080064 4.9986656 18.57117991 5.64804774 13.625 7.6875 C12.22121094 8.28111328 12.22121094 8.28111328 10.7890625 8.88671875 C9.86867188 9.25410156 8.94828125 9.62148438 8 10 C7.12085938 10.37769531 6.24171875 10.75539063 5.3359375 11.14453125 C3 12 3 12 0 12 C0 8.04 0 4.08 0 0 Z " fill="#000000" transform="translate(360,412)"/>
<path d="M0 0 C8.21043989 1.64208798 16.69885082 4.18423677 22 11 C22 11.33 22 11.66 22 12 C14.74 12 7.48 12 0 12 C0 8.04 0 4.08 0 0 Z " fill="#000000" transform="translate(360,128)"/>
</svg>
