<svg xmlns="http://www.w3.org/2000/svg" viewBox="0 0 32 32" id="wordpress">
  <path d="M27.84 5.61A3.41 3.41 0 0 0 24.23 5a3.34 3.34 0 0 0-1.9 3.27 6.57 6.57 0 0 0 1 2.73c.72 1.46 1.54 3.11 1.27 4.9L21.65 24 16.44 9.26h1.19l2.82 8a1 1 0 0 0 .94.66 1 1 0 0 0 .95-1.33l-2.59-7.33h.79a1 1 0 0 0 0-2h-6.62a1 1 0 0 0 0 2h.4L15.65 13l-3.93 11-5.2-14.74H7.7l2.83 8a1 1 0 0 0 .94.66 1 1 0 0 0 .33-.05 1 1 0 0 0 .61-1.28L9.82 9.26h.8a1 1 0 0 0 0-2H4a1 1 0 0 0 0 2h.4l6.38 18.07a1 1 0 0 0 .94.67 1 1 0 0 0 .94-.66L16.7 16l4 11.32a1 1 0 0 0 .94.67 1 1 0 0 0 .94-.66l3.87-10.83v-.05l1.63-4.57.61-1.83a4 4 0 0 0-.85-4.44Zm-1 3.81-.9 2.58c-.28-.7-.59-1.33-.87-1.9a6.29 6.29 0 0 1-.74-1.84A1.47 1.47 0 0 1 25 6.82a1.16 1.16 0 0 1 .49-.1 1.49 1.49 0 0 1 1 .37 2.13 2.13 0 0 1 .32 2.33Z"></path>
</svg>
